<svg width="570" height="131" viewBox="0 0 570 131" fill="none" xmlns="http://www.w3.org/2000/svg">
<path d="M58.5718 47.0833C49.0877 43.7826 41.4796 42.079 35.5391 42.079C27.6184 42.079 22.4073 44.6344 22.4073 48.574C22.4073 51.5553 24.596 53.3653 30.9534 56.0272C44.6062 61.7769 53.465 66.2488 57.6338 69.5496C61.3857 72.5309 63.6785 77.2158 63.6785 82.0072C63.6785 94.5712 52.1101 101.812 32.4125 101.812C29.7027 101.812 26.993 101.705 24.4917 101.386C18.1343 100.747 15.2161 99.895 5.83632 96.4878C4.58568 96.0619 2.60549 95.3166 -1.1412e-05 94.3583L7.19118 82.0072C13.6528 84.7755 16.3626 85.8403 19.906 86.905C24.3875 88.1827 29.1816 88.928 32.7251 88.928C40.5416 88.928 45.6484 86.1597 45.6484 81.9007C45.6484 78.9194 43.6683 76.8963 37.8319 74.3409L24.0749 68.1654C8.23339 61.0315 3.43926 56.3466 3.43926 48.7869C3.43926 45.2732 4.79412 41.6531 6.98275 38.9912C8.44183 37.1811 10.7347 35.371 13.5486 33.7739C20.0103 30.2602 25.534 29.089 35.956 29.089C41.8965 29.089 47.1075 29.6214 52.7354 30.8991C57.0084 31.9638 59.5097 32.7092 65.4503 34.9451L58.5718 47.0833Z" fill="#142568"/>
<path d="M69.3354 98.1754L69.3354 32.7251L125.672 32.7251L125.672 43.3682L86.9947 43.3682L86.9947 59.4821L118.63 59.4821L118.63 70.1253L86.9947 70.1253L86.9947 87.5323L127.513 87.5323L127.513 98.1754L69.3354 98.1754Z" fill="#142568"/>
<path d="M178.028 98.1754L157.304 72.0152L148.634 72.0152L148.634 98.1754L131.399 98.1754L131.399 32.7251L161.533 32.7251C174.645 32.7251 180.671 33.9187 186.064 37.5991C191.034 40.8815 193.465 45.656 193.465 51.7236C193.465 56.7965 191.774 60.8747 188.496 64.0577C185.112 67.2407 181.94 68.6333 174.433 70.1253L196.849 98.1754L178.028 98.1754ZM160.053 43.3682L148.845 43.3682L148.845 61.372L160.053 61.372C171.05 61.372 175.808 58.5869 175.808 52.022C175.702 45.8549 171.261 43.3682 160.053 43.3682Z" fill="#142568"/>
<path d="M245.651 98.1754L232.176 98.1754L200.734 32.7251L218.905 32.7251L238.913 78.779L259.636 32.7251L277.093 32.7251L245.651 98.1754Z" fill="#142568"/>
<path d="M343.092 98.1754L336.086 82.037L306.179 82.037L298.859 98.1754L280.978 98.1754L313.29 32.7251L328.557 32.7251L360.973 98.1754L343.092 98.1754ZM321.028 47.6681L310.78 71.3776L331.485 71.3776L321.028 47.6681Z" fill="#142568"/>
<path d="M383.039 32.7253L364.858 32.7253L364.858 98.1756L383.039 98.1756L383.039 32.7253Z" fill="#142568"/>
<path d="M433.447 98.0761L412.723 71.9158L404.159 71.9158L404.159 98.076L386.924 98.076L386.924 32.7252L417.058 32.7252C430.17 32.7252 436.197 33.9188 441.589 37.5992C446.559 40.8816 448.991 45.6561 448.991 51.7237C448.991 56.7966 447.299 60.8748 444.021 64.0578C440.638 67.2408 437.465 68.6334 429.958 70.1254L452.374 98.1755L433.447 98.1755L433.447 98.0761ZM415.367 43.2689L404.159 43.2689L404.159 61.2727L415.367 61.2727C426.363 61.2727 431.121 58.4876 431.121 51.9226C431.121 45.7556 426.575 43.2689 415.367 43.2689Z" fill="#142568"/>
<path d="M459.895 69.0866C457.896 69.0866 456.259 67.4503 456.259 65.4505C456.259 63.4506 457.896 61.8143 459.895 61.8143C461.895 61.8143 463.532 63.4506 463.532 65.4505C463.532 67.4503 461.895 69.0866 459.895 69.0866ZM459.895 62.6325C458.35 62.6325 457.077 63.9051 457.077 65.4505C457.077 66.9958 458.35 68.2684 459.895 68.2684C461.441 68.2684 462.713 66.9958 462.713 65.4505C462.713 63.9051 461.441 62.6325 459.895 62.6325ZM460.441 67.5412L459.532 65.905L459.35 65.905L459.35 67.5412L458.35 67.5412L458.35 63.3597L459.895 63.3597C460.986 63.3597 461.532 63.7233 461.532 64.6323C461.532 65.3595 461.168 65.8141 460.532 65.905L461.532 67.5412L460.441 67.5412ZM459.804 64.0869L459.35 64.0869L459.35 65.2687L459.804 65.2687C460.259 65.2687 460.532 64.9959 460.532 64.6323C460.532 64.3596 460.259 64.0869 459.804 64.0869Z" fill="#142568"/>
<path d="M480.963 119.482C478.106 121.556 475.037 123.734 471.968 125.809C470.486 126.846 469.004 127.883 467.417 128.816C471.756 126.223 475.354 124.46 478.635 123.112C486.361 120.104 491.229 120.519 496.309 122.49C508.48 127.157 514.407 138.877 517.158 122.386C517.158 122.179 517.264 121.971 517.264 121.764C517.37 121.349 517.37 120.934 517.476 120.415C518.428 113.777 518.958 103.198 519.275 87.226C508.798 97.7014 496.203 108.488 480.963 119.482ZM569.228 0.000139872C567.429 0.62244 565.63 1.24474 563.831 1.86704C559.492 3.4228 555.152 4.97856 550.813 6.43059C540.336 10.1644 529.964 13.7945 519.487 17.5283C519.487 48.021 519.381 70.6313 519.063 87.3297C564.36 42.2129 568.699 5.60085 569.122 0.518724L569.228 0.000139872Z" fill="#C30D28"/>
</svg>
